<svg width="750" height="200" viewBox="0 0 750 200" fill="none" xmlns="http://www.w3.org/2000/svg">
<rect width="750" height="200" rx="5" fill="#1488CC"/>
<path d="M333.687 57.9141L322.498 83H318.898L330.05 58.8047H315.429V55.9844H333.687V57.9141ZM339.16 69.4551L340.533 55.9844H354.375V59.1572H343.446L342.63 66.5234C343.953 65.7441 345.456 65.3545 347.139 65.3545C349.6 65.3545 351.555 66.1709 353.002 67.8037C354.449 69.4242 355.173 71.6198 355.173 74.3906C355.173 77.1738 354.418 79.3695 352.909 80.9775C351.412 82.5732 349.316 83.3711 346.619 83.3711C344.232 83.3711 342.284 82.7093 340.774 81.3857C339.265 80.0622 338.406 78.2314 338.195 75.8936H341.442C341.653 77.4398 342.203 78.6087 343.094 79.4004C343.984 80.1797 345.16 80.5693 346.619 80.5693C348.215 80.5693 349.464 80.0251 350.367 78.9365C351.283 77.848 351.74 76.3451 351.74 74.4277C351.74 72.6217 351.245 71.1745 350.256 70.0859C349.279 68.985 347.974 68.4346 346.341 68.4346C344.844 68.4346 343.669 68.7624 342.815 69.418L341.906 70.1602L339.16 69.4551ZM375.861 71.4775C375.861 75.4977 375.175 78.485 373.802 80.4395C372.429 82.3939 370.283 83.3711 367.363 83.3711C364.481 83.3711 362.347 82.4186 360.962 80.5137C359.576 78.5964 358.859 75.7389 358.81 71.9414V67.3584C358.81 63.3877 359.496 60.4375 360.869 58.5078C362.242 56.5781 364.395 55.6133 367.326 55.6133C370.233 55.6133 372.373 56.5472 373.746 58.415C375.119 60.2705 375.824 63.1403 375.861 67.0244V71.4775ZM372.429 66.7832C372.429 63.8763 372.021 61.7611 371.204 60.4375C370.388 59.1016 369.095 58.4336 367.326 58.4336C365.57 58.4336 364.289 59.0954 363.485 60.4189C362.681 61.7425 362.267 63.7773 362.242 66.5234V72.0156C362.242 74.9349 362.663 77.0934 363.504 78.4912C364.357 79.8766 365.644 80.5693 367.363 80.5693C369.058 80.5693 370.313 79.9137 371.13 78.6025C371.959 77.2913 372.392 75.2256 372.429 72.4053V66.7832ZM389.963 66.3379L396.438 55.9844H400.632L392.097 69.3809L400.836 83H396.605L389.963 72.4609L383.283 83H379.071L387.829 69.3809L379.275 55.9844H383.45L389.963 66.3379ZM421.784 83H404.083V80.5322L413.435 70.1416C414.82 68.5706 415.772 67.2965 416.292 66.3193C416.824 65.3298 417.09 64.3092 417.09 63.2578C417.09 61.8477 416.663 60.6911 415.81 59.7881C414.956 58.8851 413.818 58.4336 412.396 58.4336C410.688 58.4336 409.359 58.9222 408.406 59.8994C407.466 60.8643 406.996 62.2126 406.996 63.9443H403.563C403.563 61.458 404.361 59.4479 405.957 57.9141C407.565 56.3802 409.711 55.6133 412.396 55.6133C414.907 55.6133 416.892 56.2751 418.352 57.5986C419.811 58.9098 420.541 60.6602 420.541 62.8496C420.541 65.5091 418.846 68.6758 415.457 72.3496L408.221 80.1982H421.784V83ZM442.361 71.4775C442.361 75.4977 441.675 78.485 440.302 80.4395C438.929 82.3939 436.783 83.3711 433.863 83.3711C430.981 83.3711 428.847 82.4186 427.462 80.5137C426.076 78.5964 425.359 75.7389 425.31 71.9414V67.3584C425.31 63.3877 425.996 60.4375 427.369 58.5078C428.742 56.5781 430.895 55.6133 433.826 55.6133C436.733 55.6133 438.873 56.5472 440.246 58.415C441.619 60.2705 442.324 63.1403 442.361 67.0244V71.4775ZM438.929 66.7832C438.929 63.8763 438.521 61.7611 437.704 60.4375C436.888 59.1016 435.595 58.4336 433.826 58.4336C432.07 58.4336 430.789 59.0954 429.985 60.4189C429.181 61.7425 428.767 63.7773 428.742 66.5234V72.0156C428.742 74.9349 429.163 77.0934 430.004 78.4912C430.857 79.8766 432.144 80.5693 433.863 80.5693C435.558 80.5693 436.813 79.9137 437.63 78.6025C438.459 77.2913 438.892 75.2256 438.929 72.4053V66.7832Z" fill="white"/>
<path d="M202.698 124.424V135H199.136V107.984H209.1C212.056 107.984 214.369 108.739 216.039 110.248C217.721 111.757 218.562 113.755 218.562 116.241C218.562 118.864 217.74 120.886 216.095 122.309C214.462 123.719 212.118 124.424 209.062 124.424H202.698ZM202.698 121.511H209.1C211.005 121.511 212.464 121.065 213.479 120.175C214.493 119.272 215 117.973 215 116.278C215 114.67 214.493 113.384 213.479 112.419C212.464 111.454 211.073 110.953 209.304 110.916H202.698V121.511ZM226.3 135H222.867V106.5H226.3V135ZM244.205 135C244.007 134.604 243.846 133.899 243.723 132.885C242.127 134.542 240.222 135.371 238.008 135.371C236.029 135.371 234.402 134.814 233.128 133.701C231.866 132.576 231.235 131.153 231.235 129.434C231.235 127.343 232.027 125.723 233.61 124.572C235.206 123.41 237.445 122.828 240.327 122.828H243.667V121.251C243.667 120.051 243.308 119.099 242.591 118.394C241.873 117.676 240.816 117.317 239.418 117.317C238.193 117.317 237.167 117.627 236.338 118.245C235.509 118.864 235.095 119.612 235.095 120.49H231.644C231.644 119.488 231.996 118.523 232.701 117.596C233.419 116.656 234.383 115.913 235.596 115.369C236.82 114.825 238.162 114.553 239.622 114.553C241.935 114.553 243.747 115.134 245.059 116.297C246.37 117.447 247.05 119.037 247.1 121.065V130.306C247.1 132.149 247.335 133.615 247.805 134.703V135H244.205ZM238.509 132.384C239.585 132.384 240.605 132.105 241.57 131.549C242.535 130.992 243.234 130.269 243.667 129.378V125.259H240.977C236.771 125.259 234.668 126.49 234.668 128.951C234.668 130.027 235.027 130.868 235.744 131.475C236.462 132.081 237.383 132.384 238.509 132.384ZM260.533 132.569C261.758 132.569 262.828 132.198 263.743 131.456C264.659 130.714 265.166 129.786 265.265 128.673H268.512C268.45 129.823 268.054 130.918 267.324 131.957C266.594 132.996 265.617 133.825 264.393 134.443C263.18 135.062 261.894 135.371 260.533 135.371C257.799 135.371 255.622 134.462 254.002 132.644C252.394 130.813 251.59 128.314 251.59 125.147V124.572C251.59 122.618 251.949 120.88 252.666 119.358C253.383 117.837 254.41 116.656 255.746 115.814C257.094 114.973 258.684 114.553 260.515 114.553C262.766 114.553 264.634 115.227 266.118 116.575C267.615 117.924 268.413 119.674 268.512 121.826H265.265C265.166 120.527 264.671 119.464 263.78 118.635C262.902 117.794 261.813 117.373 260.515 117.373C258.771 117.373 257.416 118.004 256.451 119.266C255.499 120.515 255.022 122.327 255.022 124.702V125.352C255.022 127.665 255.499 129.446 256.451 130.695C257.404 131.945 258.764 132.569 260.533 132.569ZM280.702 135.371C277.981 135.371 275.767 134.48 274.06 132.699C272.353 130.906 271.499 128.512 271.499 125.519V124.888C271.499 122.896 271.876 121.121 272.631 119.562C273.398 117.992 274.462 116.767 275.822 115.889C277.195 114.998 278.68 114.553 280.275 114.553C282.885 114.553 284.914 115.412 286.361 117.132C287.809 118.851 288.532 121.313 288.532 124.517V125.945H274.932C274.981 127.924 275.556 129.526 276.657 130.751C277.771 131.963 279.181 132.569 280.888 132.569C282.1 132.569 283.127 132.322 283.968 131.827C284.809 131.332 285.545 130.677 286.176 129.86L288.272 131.493C286.59 134.078 284.067 135.371 280.702 135.371ZM280.275 117.373C278.89 117.373 277.727 117.88 276.787 118.895C275.847 119.896 275.266 121.307 275.043 123.125H285.1V122.865C285.001 121.121 284.531 119.773 283.689 118.82C282.848 117.855 281.71 117.373 280.275 117.373ZM310.724 121.548L317.774 107.984H321.819L312.505 124.925V135H308.942V124.925L299.628 107.984H303.71L310.724 121.548ZM322.636 124.776C322.636 122.81 323.019 121.041 323.786 119.47C324.565 117.899 325.642 116.687 327.015 115.833C328.4 114.979 329.977 114.553 331.746 114.553C334.48 114.553 336.688 115.499 338.37 117.392C340.065 119.284 340.912 121.801 340.912 124.943V125.185C340.912 127.139 340.535 128.896 339.78 130.454C339.038 132 337.968 133.206 336.57 134.072C335.185 134.938 333.589 135.371 331.783 135.371C329.062 135.371 326.854 134.425 325.159 132.532C323.477 130.64 322.636 128.135 322.636 125.018V124.776ZM326.087 125.185C326.087 127.411 326.6 129.199 327.627 130.547C328.666 131.895 330.051 132.569 331.783 132.569C333.527 132.569 334.913 131.889 335.939 130.528C336.966 129.155 337.479 127.238 337.479 124.776C337.479 122.575 336.954 120.793 335.902 119.433C334.863 118.06 333.478 117.373 331.746 117.373C330.051 117.373 328.685 118.047 327.646 119.396C326.606 120.744 326.087 122.674 326.087 125.185ZM357.611 133.015C356.275 134.586 354.315 135.371 351.729 135.371C349.59 135.371 347.957 134.753 346.831 133.516C345.718 132.266 345.155 130.423 345.143 127.986V114.924H348.575V127.894C348.575 130.937 349.812 132.458 352.286 132.458C354.909 132.458 356.653 131.481 357.519 129.526V114.924H360.951V135H357.686L357.611 133.015ZM375.888 118.004C375.368 117.917 374.805 117.874 374.199 117.874C371.948 117.874 370.42 118.833 369.616 120.75V135H366.184V114.924H369.523L369.579 117.243C370.705 115.45 372.3 114.553 374.366 114.553C375.034 114.553 375.541 114.639 375.888 114.812V118.004ZM403.942 127.949H392.624L390.082 135H386.408L396.725 107.984H399.842L410.177 135H406.521L403.942 127.949ZM393.7 125.018H402.885L398.283 112.382L393.7 125.018ZM412.44 124.795C412.44 121.715 413.17 119.241 414.63 117.373C416.09 115.493 418.001 114.553 420.363 114.553C422.714 114.553 424.575 115.357 425.948 116.965V106.5H429.381V135H426.227L426.06 132.848C424.687 134.53 422.775 135.371 420.326 135.371C418.001 135.371 416.102 134.419 414.63 132.514C413.17 130.609 412.44 128.122 412.44 125.055V124.795ZM415.873 125.185C415.873 127.461 416.343 129.242 417.283 130.528C418.223 131.815 419.522 132.458 421.18 132.458C423.357 132.458 424.946 131.481 425.948 129.526V120.305C424.922 118.412 423.344 117.466 421.217 117.466C419.535 117.466 418.223 118.115 417.283 119.414C416.343 120.713 415.873 122.636 415.873 125.185ZM446.414 129.675C446.414 128.747 446.062 128.03 445.356 127.522C444.664 127.003 443.445 126.558 441.701 126.187C439.969 125.815 438.59 125.37 437.563 124.851C436.549 124.331 435.795 123.713 435.3 122.995C434.817 122.278 434.576 121.424 434.576 120.435C434.576 118.789 435.269 117.398 436.654 116.26C438.052 115.122 439.833 114.553 441.998 114.553C444.274 114.553 446.117 115.14 447.527 116.315C448.95 117.491 449.661 118.993 449.661 120.824H446.21C446.21 119.884 445.808 119.074 445.004 118.394C444.212 117.713 443.21 117.373 441.998 117.373C440.749 117.373 439.771 117.645 439.066 118.189C438.361 118.734 438.009 119.445 438.009 120.323C438.009 121.152 438.337 121.777 438.992 122.197C439.648 122.618 440.829 123.02 442.536 123.403C444.256 123.787 445.647 124.244 446.711 124.776C447.775 125.308 448.56 125.951 449.067 126.706C449.587 127.448 449.847 128.357 449.847 129.434C449.847 131.227 449.129 132.668 447.694 133.757C446.259 134.833 444.398 135.371 442.109 135.371C440.501 135.371 439.079 135.087 437.842 134.518C436.605 133.949 435.634 133.157 434.929 132.143C434.236 131.116 433.89 130.009 433.89 128.821H437.322C437.384 129.972 437.842 130.887 438.695 131.567C439.561 132.235 440.699 132.569 442.109 132.569C443.408 132.569 444.447 132.31 445.227 131.79C446.018 131.258 446.414 130.553 446.414 129.675ZM485.045 135H481.464V122.513H467.845V135H464.282V107.984H467.845V119.6H481.464V107.984H485.045V135ZM494.563 135H491.131V114.924H494.563V135ZM490.853 109.599C490.853 109.042 491.02 108.572 491.354 108.188C491.7 107.805 492.207 107.613 492.875 107.613C493.543 107.613 494.05 107.805 494.396 108.188C494.743 108.572 494.916 109.042 494.916 109.599C494.916 110.155 494.743 110.619 494.396 110.99C494.05 111.361 493.543 111.547 492.875 111.547C492.207 111.547 491.7 111.361 491.354 110.99C491.02 110.619 490.853 110.155 490.853 109.599ZM509.778 118.004C509.259 117.917 508.696 117.874 508.09 117.874C505.839 117.874 504.311 118.833 503.507 120.75V135H500.074V114.924H503.414L503.47 117.243C504.595 115.45 506.191 114.553 508.257 114.553C508.925 114.553 509.432 114.639 509.778 114.812V118.004ZM520.911 135.371C518.19 135.371 515.976 134.48 514.269 132.699C512.562 130.906 511.708 128.512 511.708 125.519V124.888C511.708 122.896 512.085 121.121 512.84 119.562C513.607 117.992 514.671 116.767 516.031 115.889C517.404 114.998 518.889 114.553 520.484 114.553C523.094 114.553 525.123 115.412 526.57 117.132C528.018 118.851 528.741 121.313 528.741 124.517V125.945H515.141C515.19 127.924 515.765 129.526 516.866 130.751C517.979 131.963 519.39 132.569 521.097 132.569C522.309 132.569 523.336 132.322 524.177 131.827C525.018 131.332 525.754 130.677 526.385 129.86L528.481 131.493C526.799 134.078 524.276 135.371 520.911 135.371ZM520.484 117.373C519.099 117.373 517.936 117.88 516.996 118.895C516.056 119.896 515.475 121.307 515.252 123.125H525.309V122.865C525.21 121.121 524.74 119.773 523.898 118.82C523.057 117.855 521.919 117.373 520.484 117.373Z" fill="white"/>
</svg>
