<svg width="93" height="29" viewBox="0 0 93 29" fill="none" xmlns="http://www.w3.org/2000/svg">
<path d="M3.7168 25.0869H16.5195V28H0.135742V0.984375H3.7168V25.0869ZM40.1396 15.3643C40.1396 18.0114 39.6943 20.3245 38.8037 22.3037C37.9131 24.2705 36.6514 25.7734 35.0186 26.8125C33.3857 27.8516 31.4808 28.3711 29.3037 28.3711C27.1761 28.3711 25.2897 27.8516 23.6445 26.8125C21.9993 25.7611 20.7191 24.2705 19.8037 22.3408C18.9007 20.3988 18.4368 18.1536 18.4121 15.6055V13.6572C18.4121 11.0596 18.8636 8.76497 19.7666 6.77344C20.6696 4.7819 21.9437 3.26042 23.5889 2.20898C25.2464 1.14518 27.139 0.613281 29.2666 0.613281C31.4313 0.613281 33.3363 1.139 34.9814 2.19043C36.639 3.22949 37.9131 4.74479 38.8037 6.73633C39.6943 8.71549 40.1396 11.0225 40.1396 13.6572V15.3643ZM36.5957 13.6201C36.5957 10.4163 35.9525 7.96094 34.666 6.25391C33.3796 4.53451 31.5798 3.6748 29.2666 3.6748C27.0153 3.6748 25.2402 4.53451 23.9414 6.25391C22.6549 7.96094 21.9932 10.3359 21.9561 13.3789V15.3643C21.9561 18.4691 22.6055 20.9121 23.9043 22.6934C25.2155 24.4622 27.0153 25.3467 29.3037 25.3467C31.6045 25.3467 33.3857 24.5117 34.6475 22.8418C35.9092 21.1595 36.5586 18.7536 36.5957 15.624V13.6201ZM65.4297 24.4561C64.5143 25.7673 63.234 26.7507 61.5889 27.4062C59.9561 28.0495 58.0511 28.3711 55.874 28.3711C53.6722 28.3711 51.7178 27.8577 50.0107 26.8311C48.3037 25.792 46.9801 24.32 46.04 22.415C45.1123 20.5101 44.6361 18.3021 44.6113 15.791V13.4346C44.6113 9.36491 45.5576 6.21061 47.4502 3.97168C49.3551 1.73275 52.027 0.613281 55.4658 0.613281C58.2861 0.613281 60.556 1.33691 62.2754 2.78418C63.9948 4.21908 65.0462 6.26009 65.4297 8.90723H61.8672C61.1992 5.33236 59.0716 3.54492 55.4844 3.54492C53.097 3.54492 51.2848 4.38607 50.0479 6.06836C48.8232 7.73828 48.2048 10.1628 48.1924 13.3418V15.5498C48.1924 18.5804 48.8851 20.9925 50.2705 22.7861C51.6559 24.5674 53.5299 25.458 55.8926 25.458C57.2285 25.458 58.3975 25.3096 59.3994 25.0127C60.4014 24.7158 61.2301 24.2148 61.8857 23.5098V17.4424H55.6328V14.5479H65.4297V24.4561ZM92.167 15.3643C92.167 18.0114 91.7217 20.3245 90.8311 22.3037C89.9404 24.2705 88.6787 25.7734 87.0459 26.8125C85.4131 27.8516 83.5081 28.3711 81.3311 28.3711C79.2035 28.3711 77.3171 27.8516 75.6719 26.8125C74.0267 25.7611 72.7464 24.2705 71.8311 22.3408C70.9281 20.3988 70.4642 18.1536 70.4395 15.6055V13.6572C70.4395 11.0596 70.891 8.76497 71.7939 6.77344C72.6969 4.7819 73.971 3.26042 75.6162 2.20898C77.2738 1.14518 79.1663 0.613281 81.2939 0.613281C83.4587 0.613281 85.3636 1.139 87.0088 2.19043C88.6663 3.22949 89.9404 4.74479 90.8311 6.73633C91.7217 8.71549 92.167 11.0225 92.167 13.6572V15.3643ZM88.623 13.6201C88.623 10.4163 87.9798 7.96094 86.6934 6.25391C85.4069 4.53451 83.6071 3.6748 81.2939 3.6748C79.0426 3.6748 77.2676 4.53451 75.9688 6.25391C74.6823 7.96094 74.0205 10.3359 73.9834 13.3789V15.3643C73.9834 18.4691 74.6328 20.9121 75.9316 22.6934C77.2428 24.4622 79.0426 25.3467 81.3311 25.3467C83.6318 25.3467 85.4131 24.5117 86.6748 22.8418C87.9365 21.1595 88.5859 18.7536 88.623 15.624V13.6201Z" fill="#DC3545"/>
</svg>
